<?xml version="1.0" encoding="UTF-8"?>
<svg id="Calque_2" data-name="Calque 2" xmlns="http://www.w3.org/2000/svg" viewBox="0 0 1042.76 426.26">
  <defs>
    <style>
      .cls-1 {
        fill: #df3f32;
      }

      .cls-1, .cls-2, .cls-3 {
        stroke-width: 0px;
      }

      .cls-2 {
        fill: #274c5b;
      }

      .cls-3 {
        fill: #90bc21;
      }
    </style>
  </defs>
  <g id="Calque_1-2" data-name="Calque 1">
    <g>
      <g>
        <path class="cls-1" d="m55.85,6.16c-21.58.21-34.3,15.12-31.08,36.5,2.79,18.51,12.85,31.74,29.55,39.88,9.31,4.54,19.05,8.21,28.22,12.99,25.26,13.19,35.09,32.45,29.64,56.98-5.74,25.85-23.78,40.99-51.8,42.11-18.13.72-35.32-3.51-49.36-15.84-13.74-12.06-14.7-33.82-2.5-44.91,7.93-7.21,22.01-7.4,28.26-.38,7.52,8.45,5.39,19.71-5.28,27.79-.69.52-1.47.91-2.2,1.37-8.16,5.14-7.36,10.78-.89,16.68,10.21,9.3,34.82,10.76,46.46,2.78,11.67-8,15.93-23.88,6.98-39.42-6.15-10.68-16.12-19.67-25.87-27.59-7.55-6.13-17.74-8.87-26.17-14.06C1.5,83.59-7,56.75,6.46,28.91,18.43,4.14,48.77-6.45,77.82,4.01c21.92,7.89,35.05,24.77,32.78,44.21-.75,6.4-3.72,13.75-8.14,18.24-6.76,6.87-15.9,6.8-23.3-.12-7.36-6.87-7.81-15.41-2.04-23.41,5.26-7.29,16-12.07,9.63-23.88-4.31-7.98-16.62-13.02-30.91-12.89Z"/>
        <path class="cls-2" d="m395.93,265.79c-5.17,2.18-11.84,1.14-13.3-2.84-1.23.85-2.37,1.78-3.62,2.49-7.24,4.12-15.37,1.89-18.71-5.74-5.06-11.56-4.92-23.49.08-34.99,3.85-8.86,11.6-10.01,22.71-3.55-1.65-8.21,2.75-16.6-4.46-24.57,4.89-2.04,9.39-3.93,14.74-6.16.31,2.82.69,4.68.69,6.53-.03,18.62-.23,37.24-.09,55.85.03,4.08,1.22,8.14,1.99,12.97Zm-13.01-23.39h-.12c0-4.62.09-9.24-.03-13.86-.1-4.21-3.27-7.81-7.06-8.26-4.9-.58-5.9,3.02-6.29,6.5-.65,5.87-1.08,11.8-1.05,17.71.03,5.07.34,10.25,1.41,15.18,1.16,5.33,5.83,6.62,9.68,2.77,1.77-1.77,2.98-4.67,3.3-7.2.53-4.22.15-8.56.15-12.85Z"/>
        <path class="cls-1" d="m94.49,424.35c-20.4-1.78-38.11-5.27-50.83-20.35-7.56-8.97-10.09-20.05-4.47-30.15,3.51-6.29,10.83-12.6,17.58-14.24,5.19-1.26,14.41,3.13,17.8,7.88,5.08,7.12,2.27,15.43-4.78,21.88-4.02,3.68-10.5,11.26-9.54,12.62,3.9,5.54,9.82,10.11,15.85,13.54,3.87,2.21,9.2,2.23,13.92,2.51,22.89,1.33,36.91-15.33,31.33-37.61-3.97-15.85-13.47-27.73-28.02-35.53-11.4-6.11-23.29-11.57-33.83-18.94-19.95-13.94-25.98-33.93-20.13-57.09,5.51-21.83,20.12-35.25,42.31-38.48,23.28-3.38,44.01,2.9,58.5,22.55,7.87,10.66,10,23.68,3.78,35.53-2.85,5.43-10.55,10.9-16.45,11.38-5.1.42-13.72-5.16-15.42-9.98-1.94-5.5.02-14.75,3.85-19.47,13.25-16.33,10.1-28.04-10.64-32.74-14.06-3.19-28.09-3.31-38.03,9.23-9.99,12.6-9.81,27.7-1.52,40.05,7.09,10.57,17.77,19.36,28.38,26.76,9.77,6.81,22.07,9.88,32.35,16.09,19.12,11.55,26.13,29.33,22.27,51.08-3.64,20.54-15.7,34.25-35.8,40.18-6.55,1.93-13.52,2.45-18.45,3.3Z"/>
        <path class="cls-1" d="m469.37,303.73c6.82-3.12,17.66-8.09,30.7-14.07.8,7.87,1.73,12.8,1.74,17.72.05,27.21-.3,54.42-.11,81.62.05,8.01-3.36,18.47,10.01,20.02,10.97,1.27,25.07-8.45,25.44-19.29.75-22.43.55-44.92-.38-67.34-.2-4.72-5.24-9.25-9.85-16.81,11.3-4.67,22.36-9.47,33.74-13.31.67-.22,5.74,7.43,5.8,11.47.45,29.36-.24,58.74.35,88.09.14,6.65,3.22,13.57,6.2,19.75,3.01,6.25,1.5,9.2-4.84,9.55-7.75.43-15.87,1.37-23.18-.47-4.05-1.02-6.78-7.28-9.67-10.66-9.21,3.63-20.4,10.43-32.34,12.19-18.23,2.69-27.24-6.76-27.59-25.4-.36-19,.44-38.03-.41-57-.49-10.88-3.27-21.66-5.59-36.06Z"/>
        <path class="cls-1" d="m305.5,180.85c-8.16,3.66-17.04,9.65-26.73,11.57-21.65,4.29-32.13-4.54-32.87-26.54-.67-19.85.32-39.75-.42-59.6-.36-9.54-3.03-18.99-5.22-31.8,6.91-3.17,17.45-8.01,30.27-13.9.57,6.84,1.24,11.28,1.26,15.71.11,27.65-.14,55.3.21,82.94.1,8.03-2.63,18.5,10.75,19.6,10.85.9,24.16-8.21,24.55-18.58.86-22.87.85-45.79.23-68.66-.12-4.31-4.77-8.5-8.96-15.44,11.5-5.1,23.06-10.22,36.88-16.34.57,7.42,1.18,11.93,1.22,16.43.21,27.65-.24,55.31.74,82.93.28,7.83,5.18,15.41,6.79,23.34.54,2.68-2.28,8.57-4.02,8.76-8.53.92-17.45,1.54-25.75-.12-3.72-.75-6.32-7.1-8.93-10.29Z"/>
        <path class="cls-1" d="m623.29,75.06c10.52-4.49,22.06-9.41,36.35-15.52,0,18.35-.16,33.37.04,48.38.27,20.27.72,40.53,1.34,60.79.1,3.33,1.21,6.71,2.34,9.89,1.27,3.56,3.09,6.93,4.66,10.38-4.05.94-8.07,2.08-12.17,2.74-2.53.41-5.17.09-7.76.07q-14.72-.07-18.01-10.47c-11.87,3.93-23.49,9.79-35.64,11.3-15.82,1.96-24.28-6.61-24.8-22.7-.7-21.56.12-43.18-.7-64.74-.34-9.03-3.23-17.97-5.7-30.77,6.97-3.1,17.87-7.95,31.26-13.91,0,24.96-.14,46.89.05,68.82.11,12.5.88,25,1.11,37.5.22,11.67,7.28,13.44,16.64,11.75,10.68-1.93,18.38-11.39,18.58-23.06.33-19.43.98-38.88.21-58.27-.26-6.52-4.4-12.89-7.81-22.17Z"/>
        <path class="cls-1" d="m225.19,418.65c-10.48,1.39-20.98,4.08-31.43,3.88-16.05-.3-28.26-11.83-31.75-27.44-3.12-13.96,2.77-29.36,16.74-36,10.61-5.04,22.85-6.8,34.5-9.46,4.04-.92,8.46-.15,13.86-.15,0-14.05.82-26.93-.45-39.59-.44-4.37-6.21-11.77-9.25-11.62-7.62.37-15.64,3.33-22.21,7.36-1.81,1.11,1.25,9.61,1.52,14.76.37,7.1,2.62,15.67-.51,20.85-2.25,3.72-12.43,4.98-18.25,3.67-8.99-2.02-11.95-11.33-9.07-18.74,3.7-9.54,8.83-20.19,16.59-26.12,15.01-11.47,33.41-11.39,50.67-4.65,15.57,6.09,18.46,20.76,18.89,35.45.6,20.29-.31,40.63.8,60.88.38,6.86,5.45,13.34,7.27,20.29.72,2.74-1.53,9.02-2.48,9.03-11.95.13-23.91-.59-35.87-1.1.14-.43.28-.86.42-1.29Zm2.06-37.55c.14,0,.28,0,.42,0,0-2.59.26-5.2-.05-7.75-.81-6.62,3.52-17.42-7.27-17.37-8.34.03-20.43,3.63-24.07,9.71-5.21,8.7-5.66,21.13-5.52,31.93.14,11.08,7.92,16.9,19.29,15.81,10.69-1.02,17.84-5.95,17.24-18.11-.23-4.73-.04-9.48-.04-14.22Z"/>
        <path class="cls-1" d="m190.93,118.13c0-12.43.81-24.95-.42-37.27-.45-4.54-5.76-12.23-8.74-12.17-7.66.14-15.78,2.88-22.53,6.68-1.82,1.02-.73,10.24,1.38,14.53,3.9,7.95,7.55,16.41-.53,22.07-4.95,3.47-15.9,5.09-19.54,2.04-5.01-4.2-8.71-14.13-7.6-20.69,3.81-22.46,26.32-34.45,54.85-31.2,20.11,2.29,29.81,14.26,30.37,37.96.55,23.31.58,46.63,1.53,69.92.16,4.01,3.03,8.58,5.95,11.65,4.82,5.06,4.46,9.56-2.13,9.54-10.71-.04-21.4-2.61-32.11-3.96-2.12-.27-4.46-.25-6.48.37-4.5,1.37-8.74,3.93-13.3,4.72-22.04,3.83-40.86-6.62-45.29-24.68-5.04-20.57,5.91-37.95,29.36-44.34,10.7-2.91,22.07-3.34,35.24-5.18Zm.21,34.68c0-4.31.02-8.63,0-12.94-.08-13.65-4.9-17.19-18.22-13.9-11.75,2.9-18.2,11.51-18.5,22.19-.29,10.53,1.89,21.93,6.35,31.36,1.62,3.42,13.23,3.81,19.8,2.71,6.98-1.16,11.73-6.64,10.66-15.2-.58-4.67-.1-9.47-.09-14.22Z"/>
        <path class="cls-1" d="m825.37,196.33c-12.55-5.04-25.95-8.66-37.41-15.51-12-7.18-14.12-22.64-6.82-33.02,5.79-8.24,13.57-10.95,22.39-5.17,8.27,5.42,7.95,13.33,2.45,20.2-8.43,10.54-2.69,15.54,6.57,19.21,4.31,1.71,9.2,2.84,13.8,2.78,10.31-.14,20.6-2.21,23.69-13.9,3.1-11.74-4.6-18.65-13.88-23.53-11.42-6.01-23.69-10.57-34.66-17.27-19.09-11.67-24.46-24.46-19.51-41.91,4.73-16.65,17.81-26.92,38.49-26.03,12.84.55,26.46,3.8,37.96,9.44,13.29,6.52,16.32,23.56,8.85,34.74-5.06,7.57-12.11,9.87-20.05,4.82-7.24-4.6-8.36-11.12-4.83-19.13,2.46-5.6,3.5-11.82,5.18-17.76-10.25-1.5-20.82-5.14-30.6-3.61-5.1.8-11.38,10.22-12.53,16.58-2.26,12.48,5.77,21.02,16.74,26.31,10.87,5.24,22.2,9.62,32.77,15.39,17.84,9.75,23.54,21.11,20.3,37.71-2.65,13.56-15.91,23.84-33.53,25.85-4.72.54-9.47.73-14.21,1.08-.38.91-.77,1.83-1.15,2.74Z"/>
        <path class="cls-1" d="m732.59,426.26c-13.24-5.43-27.41-9.35-39.46-16.73-11.93-7.3-13.07-23.05-4.96-33.09,6.05-7.5,13.63-9.37,21.66-3.71,7.46,5.26,6.5,12.35,2.45,19.52-6.44,11.39-4.73,16.25,7.49,20.57,3.63,1.28,7.53,2.2,11.36,2.49,11.75.9,24.3-6.14,25.96-15.23,2.04-11.2-5.28-17.82-13.91-22.51-11.73-6.38-24.41-11.1-35.83-17.96-18.6-11.17-23.95-24.17-19.25-42.26,3.94-15.16,18.33-26.29,37.8-25.43,12.87.57,26.5,3.58,38.03,9.15,12.72,6.15,15.85,20.81,10.52,32.39-4.18,9.09-11.22,12.09-20.08,7.72-8.68-4.28-8.77-11.58-5.35-19.9,2.2-5.34,6.21-14.08,4.11-16.32-7.96-8.5-19.72-9.92-29.81-4.84-5.88,2.96-12.02,10.26-13.24,16.54-2.27,11.62,4.67,20.66,15.25,25.94,11.19,5.58,22.97,10.04,33.89,16.08,18.65,10.32,24.39,21.36,20.84,37.21-3.39,15.1-16.25,24.62-35.72,26.39-3.44.31-6.89.49-10.34.73-.47,1.09-.94,2.17-1.41,3.26Z"/>
        <path class="cls-1" d="m394.11,365.01c-3.3,20.65,5.78,44.13,19.2,47.98,17.23,4.93,31.33-5.73,44.02-34.88,1.06,4.5,2.36,7.04,2.12,9.43-1.71,16.72-12.21,30.1-27.94,33.59-19.58,4.35-38,2.23-51.87-14.59-18.14-21.99-20.91-66.38-5.77-90.81,13.59-21.94,38.43-30.82,63.14-22.59,14.91,4.97,22.98,15.04,23.38,29.15.46,16.57-6.64,29.93-21.83,34.58-14.18,4.33-29.32,5.52-44.44,8.16Zm-3.53-9.55c30.97-.15,45.22-16.24,39.73-42.1-1.27-6-7.2-14.51-12.04-15.29-5.06-.82-14.78,5.12-16.54,10.17-5.22,14.94-7.53,30.9-11.14,47.22Z"/>
        <path class="cls-2" d="m410.69,244.31c-.66,9.96,2.49,17.82,7.48,19.15,6.4,1.7,11.59-2.2,16.45-12.37,2.79,6.33-3.01,14.54-11.15,15.79-10.94,1.68-18.72-2.98-22.09-13.55-2.29-7.18-2.88-14.57-.63-21.89,3.47-11.28,13.76-17,25.22-14.23,5.71,1.38,9.46,5.25,9.95,10.28.65,6.67-1.77,12.1-7.49,14.16-4.4,1.59-9.27,1.87-13.95,2.63-1.24.2-2.54.03-3.79.03Zm-1.23-2.85c12.05.06,17.57-6.47,14.98-16.69-.54-2.12-2.91-5.29-4.43-5.29-2.21,0-5.7,2.01-6.37,3.94-1.98,5.73-2.84,11.84-4.18,18.04Z"/>
        <path class="cls-1" d="m550.71,149.11c5.81,20.38-7.8,39.86-28.48,43.31-29.77,4.96-50.6-7.77-59.13-37-6.98-23.92-8.01-47.76,5.73-70.01,13.97-22.62,43.23-31.12,67.18-19.75,11.99,5.69,18.73,15.4,18.49,28.74-.26,15.03-6.73,27.76-21.33,32.41-14.1,4.49-29.24,5.7-44.46,8.45-4.15,20.14,4.44,43.41,18.41,47.69,16.98,5.2,31.38-5.6,43.6-33.84Zm-62.82-23.14c28.65-1.14,43.72-19.13,36.5-44.1-1.74-6.02-8.12-14.41-12.96-14.83-5.28-.46-13.36,5.87-16.52,11.36-8.37,14.6-8.69,31.07-7.03,47.57Z"/>
        <path class="cls-1" d="m626.44,301.3c11.39-3.79,21.22-9.16,31.41-9.98,16.16-1.3,27.02,17.67,19.76,32.11-3.99,7.94-11.45,10.83-18.27,6.76-4.03-2.41-5.83-9.96-6.85-15.53-.74-4.08,1.42-8.69,2.38-13.53-19.84,1.71-28.81,11.07-28.87,28.45-.06,19.87-.73,39.78.1,59.61.38,9.17,3.69,18.22,6.08,29.24-4.9,4.69-32.77,5.53-44.75-1.52,11.95-9.98,9.3-23.64,9.37-36.63.09-15.55.59-31.14-.29-46.65-.54-9.56-3.3-18.99-5.64-31.55,13.53-17.09,28.13-18,35.55-.78Z"/>
        <path class="cls-1" d="m684.23,72.9c23.65-19.08,29.51-18.46,37.07.34,6.7-3.62,13.05-8.27,20.17-10.67,19.07-6.43,34.83,6.8,31.62,26.06-1.6,9.62-7.52,14.64-17.38,12.92-10.21-1.79-11.41-9.01-9.28-17.73.95-3.89,1.55-7.87,2.39-12.25-19.81,1.48-29,10.64-29.01,28.19,0,22.87.14,45.75.93,68.6.16,4.61,4.03,8.98,5.22,13.7.7,2.79-.4,8.71-.84,8.72-14.31.47-28.65.38-43.7-1.21,13.29-15.48,8.71-32.8,9.29-49.07.45-12.94.51-25.97-.5-38.86-.69-8.76-3.53-17.36-5.99-28.74Z"/>
        <path class="cls-1" d="m260.59,294.12h39.07c1.76,10.67,2.08,19.28,4.69,27.11,5.67,16.98,12.53,33.57,20.03,53.28,7.38-24.69,13.87-46.39,20.5-68.55-3.41-2.63-6.63-5.11-9.9-7.63,5.37-5.69,24.99-9.07,29.38-4.8,1.2,1.17.06,6.16-1.45,8.44-3.96,5.98-10.73,10.78-12.83,17.2-9.88,30.27-18.41,60.98-27.88,91.39-1.37,4.4-5.24,8.01-7.95,11.99-2.92-3.7-7.06-6.95-8.58-11.16-10.97-30.37-21.18-61.01-32.17-91.38-3-8.29-7.86-15.92-12.9-25.9Z"/>
        <path class="cls-1" d="m418.43,146.42c7.59-25.75,14.24-48.33,20.76-70.45-4-3.24-7.05-5.7-10.1-8.17.27-1.02.55-2.03.82-3.05h32.77c-2.55,3.55-3.51,6.31-4.84,6.51-9.59,1.42-11.89,8.69-14.14,16.33-9.25,31.41-18.46,62.83-28.08,94.13-1.24,4.03-4.79,7.34-7.27,10.99-2.98-3.66-7.24-6.86-8.75-11.05-10.07-27.96-19.29-56.23-29.35-84.2-3.88-10.78-9.22-21.03-14.43-32.72h38.13c1,9.47.53,16.77,2.69,23.17,6.32,18.69,13.69,37.02,21.79,58.51Z"/>
      </g>
      <g>
        <path class="cls-3" d="m882.82,179.03c.42-1.07.83-2.14,1.24-3.2,5.74-7.71,9.73-2.24,12.3,2.42,11.6,21.03,23.74,41.87,33.66,63.69,8.58,18.87,14.44,38.98,21.4,58.26,5.63-16.26-13.77-73.73-42.34-124.95,39.06,1.56,59.53,28.67,76.5,58.83,22.73,40.39,24.65,83.61,13.39,127.92-4.97,19.55-9.7,39.16-14.41,58.23-5.69-8.37-11.98-18.22-18.88-27.62-11.16-15.21-22.97-29.94-34.07-45.19-16.56-22.76-33.64-45.23-48.8-68.9-11.41-17.81-19.78-37.4-19.89-59.45-.04-7.04,1.36-12.52,6.42-18.15,5.64-6.26,9.07-14.5,13.47-21.89Z"/>
        <path class="cls-3" d="m892.05,154.73c2.21-12.75,11.18-15.73,22.29-15.03,16.31,1.03,32.59,2.36,48.88,3.63,3.08.24,6.15.79,10.13,1.32-4.53-5.36-14.45-8.54-37.87-10.96-12.87-1.33-25.91-.88-39.31-1.24,26.71-39.15,110.96-24.16,146.59,26.38-3.42.8-6.31,1.67-9.26,2.15-25,4.06-50.03,7.96-75.03,12.07-25.08,4.13-47.9.55-66.36-18.66-.01.04-.06.34-.06.34Z"/>
      </g>
    </g>
  </g>
</svg>